<svg width="17" height="22" viewBox="0 0 17 22" fill="none" xmlns="http://www.w3.org/2000/svg">
<path fill-rule="evenodd" clip-rule="evenodd" d="M2.83333 0C2.08189 0 1.36122 0.289725 0.829864 0.805438C0.298511 1.32115 1.89647e-07 2.02061 1.89647e-07 2.74994V21.312C-8.98079e-05 21.4314 0.0318531 21.5487 0.0926848 21.6525C0.153517 21.7563 0.24114 21.8429 0.34693 21.9038C0.45272 21.9647 0.573029 21.9978 0.696015 21.9999C0.819002 22.002 0.940425 21.9729 1.04833 21.9156L8.5 17.9695L15.9517 21.9156C16.0596 21.9729 16.181 22.002 16.304 21.9999C16.427 21.9978 16.5473 21.9647 16.6531 21.9038C16.7589 21.8429 16.8465 21.7563 16.9073 21.6525C16.9681 21.5487 17.0001 21.4314 17 21.312V2.74994C17 2.02061 16.7015 1.32115 16.1701 0.805438C15.6388 0.289725 14.9181 0 14.1667 0L2.83333 0ZM5.66667 8.24981C5.4788 8.24981 5.29864 8.32224 5.1658 8.45117C5.03296 8.5801 4.95833 8.75496 4.95833 8.9373C4.95833 9.11963 5.03296 9.29449 5.1658 9.42342C5.29864 9.55235 5.4788 9.62478 5.66667 9.62478H11.3333C11.5212 9.62478 11.7014 9.55235 11.8342 9.42342C11.967 9.29449 12.0417 9.11963 12.0417 8.9373C12.0417 8.75496 11.967 8.5801 11.8342 8.45117C11.7014 8.32224 11.5212 8.24981 11.3333 8.24981H5.66667Z" fill="white"/>
</svg>
