<svg width="36" height="33" viewBox="0 0 36 33" fill="none" xmlns="http://www.w3.org/2000/svg">
<path d="M24.6795 0.00121472C22.3355 -0.0330446 19.8913 0.653276 17.9971 2.58025C16.0881 0.657026 13.6205 0.00107374 11.34 0.00107374C5.67319 0.00107374 0 4.74357 0 11.4552C0 17.9265 4.09766 23.314 8.15048 26.9767C10.2011 28.83 12.3043 30.3012 14.0124 31.3144C14.8659 31.8207 15.6352 32.2213 16.2629 32.5002C16.5756 32.6392 16.8691 32.7551 17.1305 32.8389C17.3579 32.9117 17.6785 33 18 33C18.3215 33 18.6421 32.9117 18.8695 32.8389C19.1309 32.7551 19.4244 32.6392 19.7371 32.5002C20.3648 32.2213 21.1341 31.8207 21.9876 31.3144C23.6957 30.3012 25.7989 28.83 27.8495 26.9767C31.9023 23.314 36 17.9265 36 11.4552C36 4.72767 30.3136 0.0835581 24.6795 0.00121472Z" fill="#3F51DC"/>
</svg>
