<svg width="230" height="327" viewBox="0 0 230 327" fill="none" xmlns="http://www.w3.org/2000/svg">
<rect x="0.5" y="37.5" width="229" height="289" rx="15.5" fill="#191A1F" stroke="#303030"/>
<rect x="18" y="47" width="194" height="255" rx="7" fill="#35383F"/>
<path d="M58 24C58 21.2386 60.2386 19 63 19H167C169.761 19 172 21.2386 172 24V54C172 56.7614 169.761 59 167 59H63C60.2386 59 58 56.7614 58 54V24Z" fill="#3F51DC"/>
<path d="M117 0C123.075 0 128 4.92487 128 11C128 17.0751 123.075 22 117 22C110.925 22 106 17.0751 106 11C106 4.92487 110.925 0 117 0ZM117 5C113.686 5 111 7.68629 111 11C111 14.3137 113.686 17 117 17C120.314 17 123 14.3137 123 11C123 7.68629 120.314 5 117 5Z" fill="#3F51DC"/>
</svg>
