<svg width="20" height="20" viewBox="0 0 20 20" fill="none" xmlns="http://www.w3.org/2000/svg">
<path d="M11.145 0.420158C10.5025 -0.140053 9.49748 -0.140053 8.85498 0.420158L0.782467 7.45885C0.283 7.89436 0 8.5003 0 9.13419V17.6944C0 18.9677 1.11928 20 2.5 20H5C6.38072 20 7.5 18.9677 7.5 17.6944V13.8518C7.5 13.4274 7.8731 13.0833 8.33333 13.0833H11.6667C12.1269 13.0833 12.5 13.4274 12.5 13.8518V17.6944C12.5 18.9677 13.6193 20 15 20H17.5C18.8807 20 20 18.9677 20 17.6944V9.13419C20 8.5003 19.717 7.89436 19.2175 7.45885L11.145 0.420158Z" fill="black"/>
</svg>
